<svg width="300" height="300" viewBox="0 0 300 300" fill="none" xmlns="http://www.w3.org/2000/svg">
<rect width="300" height="300" fill="#1A1E24"/>
<path d="M146.018 193.805H168.55V144.085C168.55 142.804 168.509 141.502 168.426 140.179C168.343 138.857 168.261 137.534 168.178 136.211H168.612C168.901 137.493 169.189 138.795 169.478 140.117C169.808 141.44 170.242 142.742 170.778 144.023L193.558 193.805H214.047L236.827 143.961C237.404 142.68 237.838 141.378 238.127 140.055C238.415 138.733 238.704 137.431 238.993 136.149H239.426C239.344 137.389 239.261 138.691 239.179 140.055C239.096 141.419 239.055 142.742 239.055 144.023V193.805H265.487V103.54H233.422L208.105 158.034C207.568 159.274 207.032 160.576 206.495 161.94C206 163.303 205.629 164.523 205.381 165.597H205.133C204.927 164.523 204.535 163.303 203.957 161.94C203.379 160.576 202.822 159.274 202.286 158.034L177.278 103.54H146.018V193.805Z" fill="white"/>
<path d="M37.1682 156.789C37.1682 170.513 41.4576 180.567 50.0362 186.949C58.6149 193.29 69.5486 196.46 82.8371 196.46C96.0836 196.46 106.828 193.248 115.07 186.824C123.313 180.4 127.434 170.388 127.434 156.789V103.54H100.751V158.291C100.751 165.132 99.2165 170.034 96.1467 172.995C93.1189 175.915 88.6614 177.376 82.774 177.376C76.8447 177.376 72.2609 175.915 69.0229 172.995C65.8269 170.034 64.2289 165.132 64.2289 158.291V103.54H37.1682V156.789Z" fill="white"/>
</svg>
