<svg width="196" height="47" viewBox="0 0 196 47" fill="none" xmlns="http://www.w3.org/2000/svg">
<path d="M1.8457 24.7285C1.8457 27.7272 2.77539 29.9238 4.63477 31.3184C6.49414 32.7038 8.86393 33.3965 11.7441 33.3965C14.6152 33.3965 16.944 32.6947 18.7305 31.291C20.5169 29.8874 21.4102 27.6999 21.4102 24.7285V13.0938H15.627V25.0566C15.627 26.5514 15.2943 27.6224 14.6289 28.2695C13.9727 28.9076 13.0065 29.2266 11.7305 29.2266C10.4453 29.2266 9.45182 28.9076 8.75 28.2695C8.05729 27.6224 7.71094 26.5514 7.71094 25.0566V13.0938H1.8457V24.7285Z" fill="#1A1E24"/>
<path d="M25.2383 33H30.1328V21.9805C30.1328 21.7344 30.1146 21.4564 30.0781 21.1465C30.0508 20.8275 30.028 20.5358 30.0098 20.2715H30.1602C30.2331 20.5267 30.3698 20.9049 30.5703 21.4062C30.7799 21.9076 31.0306 22.3724 31.3223 22.8008L38.3496 33H44.2422V13.0938H39.334V24.1406C39.334 24.4323 39.3431 24.724 39.3613 25.0156C39.3887 25.3073 39.416 25.599 39.4434 25.8906H39.3066C39.2246 25.6354 39.0742 25.2936 38.8555 24.8652C38.6458 24.4277 38.4408 24.0449 38.2402 23.7168L31.0762 13.0938H25.2383V33Z" fill="#1A1E24"/>
<path d="M48.1523 33H54.1406V13.0938H48.1523V33Z" fill="#1A1E24"/>
<path d="M57.0664 23.3613C57.0664 26.8066 58.1237 29.3405 60.2383 30.9629C62.3529 32.5853 65.0326 33.3965 68.2773 33.3965C71.5312 33.3965 74.2246 32.5853 76.3574 30.9629C78.4902 29.3405 79.5566 26.8066 79.5566 23.3613V22.6641C79.5566 19.2552 78.4902 16.7441 76.3574 15.1309C74.2246 13.5085 71.5312 12.6973 68.2773 12.6973C65.0234 12.6973 62.3392 13.5085 60.2246 15.1309C58.1191 16.7441 57.0664 19.2552 57.0664 22.6641V23.3613ZM63.1777 23.9219V22.1309C63.1777 20.1986 63.6335 18.8451 64.5449 18.0703C65.4655 17.2865 66.7142 16.8991 68.291 16.9082C69.8678 16.9173 71.1211 17.3092 72.0508 18.084C72.9805 18.8496 73.4453 20.1986 73.4453 22.1309V23.9219C73.4453 25.8815 72.9759 27.2624 72.0371 28.0645C71.1074 28.8665 69.8587 29.263 68.291 29.2539C66.7142 29.2357 65.4655 28.8346 64.5449 28.0508C63.6335 27.2578 63.1777 25.8815 63.1777 23.9219Z" fill="#1A1E24"/>
<path d="M82.5234 33H87.418V21.9805C87.418 21.7344 87.3997 21.4564 87.3633 21.1465C87.3359 20.8275 87.3131 20.5358 87.2949 20.2715H87.4453C87.5182 20.5267 87.6549 20.9049 87.8555 21.4062C88.0651 21.9076 88.3158 22.3724 88.6074 22.8008L95.6348 33H101.527V13.0938H96.6191V24.1406C96.6191 24.4323 96.6283 24.724 96.6465 25.0156C96.6738 25.3073 96.7012 25.599 96.7285 25.8906H96.5918C96.5098 25.6354 96.3594 25.2936 96.1406 24.8652C95.931 24.4277 95.7259 24.0449 95.5254 23.7168L88.3613 13.0938H82.5234V33Z" fill="#1A1E24"/>
<path d="M105.465 33H110.441V22.0352C110.441 21.7526 110.432 21.4655 110.414 21.1738C110.396 20.8822 110.378 20.5905 110.359 20.2988H110.455C110.519 20.5814 110.583 20.8685 110.646 21.1602C110.719 21.4518 110.815 21.7389 110.934 22.0215L115.965 33H120.49L125.521 22.0078C125.649 21.7253 125.745 21.4382 125.809 21.1465C125.872 20.8548 125.936 20.5677 126 20.2852H126.096C126.077 20.5586 126.059 20.8457 126.041 21.1465C126.023 21.4473 126.014 21.7389 126.014 22.0215V33H131.852V13.0938H124.77L119.178 25.1113C119.059 25.3848 118.941 25.6719 118.822 25.9727C118.713 26.2734 118.631 26.5423 118.576 26.7793H118.521C118.476 26.5423 118.389 26.2734 118.262 25.9727C118.134 25.6719 118.011 25.3848 117.893 25.1113L112.369 13.0938H105.465V33Z" fill="#1A1E24"/>
<path d="M133.26 33H139.029L143.842 20.7363C143.979 20.3717 144.092 20.0117 144.184 19.6562C144.275 19.2917 144.357 18.9727 144.43 18.6992H144.525C144.607 18.9635 144.694 19.278 144.785 19.6426C144.885 19.998 145.004 20.3626 145.141 20.7363L149.926 33H156.447L147.766 13.0254H141.914L133.26 33ZM138.059 29.377H151.307L149.912 25.3711H139.453L138.059 29.377Z" fill="#1A1E24"/>
<path d="M157.965 33H173.688V28.5156H163.857V13.0938H157.965V33Z" fill="#1A1E24"/>
<path d="M175.711 33H191.434V28.5156H181.604V13.0938H175.711V33Z" fill="#1A1E24"/>
</svg>
